PathFileType	4	(X/Y/Z)	 New Session 108.trc
DataRate	CameraRate	NumFrames	NumMarkers	Units	OrigDataRate	OrigDataStartFrame	OrigNumFrames
100	100	9	14	m	100	827	945
Frame#	Time	C7			T8			IJ			PX			AA			AC			AI			TS			SC			GH			LE			ME			US			RS			
		X1	Y1	Z1	X2	Y2	Z2	X3	Y3	Z3	X4	Y4	Z4	X5	Y5	Z5	X6	Y6	Z6	X7	Y7	Z7	X8	Y8	Z8	X9	Y9	Z9	X10	Y10	Z10	X11	Y11	Z11	X12	Y12	Z12	X13	Y13	Z13	X14	Y14	Z14	
827	8.2700	0.030627	0.102892	0.157554	0.014707	-0.110119	0.232947	0.003184	-0.001638	-0.003304	0.001028	-0.144045	-0.068714	0.225105	-0.008304	0.136202	0.175862	0.035035	0.065425	0.108058	0.023369	0.197111	0.099670	-0.094325	0.233647	0.028129	0.006179	0.001769	0.236733	0.002288	0.094536	0.274764	-0.286563	0.021975	0.184031	-0.311414	0.009196	0.303547	-0.550472	-0.063441	0.359409	-0.517323	-0.102092	
828	8.2800	0.030503	0.102856	0.157797	0.014719	-0.110156	0.233088	0.003089	-0.001547	-0.003194	0.000921	-0.143938	-0.068765	0.224943	-0.008324	0.136437	0.175822	0.035120	0.065648	0.107966	0.023297	0.197283	0.099605	-0.094366	0.233726	0.027995	0.006287	0.001824	0.236683	0.002391	0.094804	0.274847	-0.286335	0.021815	0.184221	-0.311186	0.008802	0.303984	-0.550002	-0.064489	0.359934	-0.516699	-0.102856	
829	8.2900	0.030360	0.102812	0.158047	0.014732	-0.110191	0.233229	0.002979	-0.001442	-0.003083	0.000815	-0.143835	-0.068804	0.224764	-0.008314	0.136673	0.175781	0.035223	0.065867	0.107862	0.023225	0.197459	0.099560	-0.094399	0.233766	0.027882	0.006379	0.001881	0.236612	0.002512	0.095077	0.274936	-0.286113	0.021673	0.184399	-0.310967	0.008478	0.304388	-0.549512	-0.065541	0.360416	-0.516041	-0.103623	
830	8.3000	0.030211	0.102766	0.158306	0.014746	-0.110228	0.233369	0.002857	-0.001321	-0.002974	0.000716	-0.143737	-0.068832	0.224579	-0.008260	0.136914	0.175733	0.035341	0.066086	0.107748	0.023159	0.197634	0.099512	-0.094429	0.233792	0.027820	0.006453	0.001958	0.236526	0.002643	0.095355	0.275060	-0.285907	0.021554	0.184567	-0.310757	0.008233	0.304758	-0.549004	-0.066588	0.360845	-0.515358	-0.104400	
831	8.3100	0.030072	0.102724	0.158572	0.014757	-0.110267	0.233503	0.002726	-0.001187	-0.002868	0.000626	-0.143641	-0.068849	0.224405	-0.008168	0.137140	0.175669	0.035473	0.066305	0.107633	0.023109	0.197805	0.099451	-0.094468	0.233828	0.027782	0.006529	0.002057	0.236431	0.002785	0.095627	0.275220	-0.285719	0.021456	0.184724	-0.310555	0.008054	0.305098	-0.548501	-0.067619	0.361223	-0.514667	-0.105187	
832	8.3200	0.029962	0.102689	0.158849	0.014765	-0.110313	0.233630	0.002594	-0.001044	-0.002764	0.000546	-0.143545	-0.068857	0.224278	-0.008057	0.137332	0.175582	0.035616	0.066512	0.107521	0.023076	0.197975	0.099375	-0.094520	0.233878	0.027729	0.006624	0.002167	0.236333	0.002939	0.095885	0.275387	-0.285539	0.021371	0.184870	-0.310355	0.007912	0.305412	-0.548026	-0.068611	0.361553	-0.513988	-0.105977	
833	8.3300	0.029882	0.102656	0.159132	0.014769	-0.110366	0.233748	0.002466	-0.000897	-0.002662	0.000472	-0.143446	-0.068857	0.224215	-0.007945	0.137481	0.175471	0.035759	0.066694	0.107417	0.023052	0.198142	0.099280	-0.094585	0.233932	0.027646	0.006737	0.002281	0.236238	0.003102	0.096119	0.275527	-0.285354	0.021279	0.185007	-0.310152	0.007771	0.305702	-0.547584	-0.069537	0.361836	-0.513342	-0.106751	
834	8.3400	0.029809	0.102623	0.159405	0.014769	-0.110428	0.233859	0.002342	-0.000751	-0.002561	0.000404	-0.143342	-0.068853	0.224169	-0.007838	0.137597	0.175338	0.035891	0.066849	0.107318	0.023025	0.198301	0.099164	-0.094657	0.233979	0.027543	0.006850	0.002399	0.236147	0.003262	0.096326	0.275614	-0.285152	0.021163	0.185138	-0.309938	0.007598	0.305952	-0.547171	-0.070384	0.362067	-0.512743	-0.107488	
835	8.3500	0.029702	0.102596	0.159646	0.014765	-0.110500	0.233964	0.002221	-0.000609	-0.002460	0.000338	-0.143231	-0.068846	0.224099	-0.007742	0.137696	0.175192	0.036013	0.066985	0.107214	0.022994	0.198453	0.099038	-0.094734	0.234014	0.027427	0.006948	0.002523	0.236052	0.003417	0.096512	0.275642	-0.284922	0.021016	0.185265	-0.309707	0.007375	0.306143	-0.546776	-0.071157	0.362244	-0.512198	-0.108180	
